<?xml version="1.0" encoding="UTF-8"?>
<!DOCTYPE svg PUBLIC "-//W3C//DTD SVG 1.1//EN" "http://www.w3.org/Graphics/SVG/1.1/DTD/svg11.dtd">
<!-- Creator: CorelDRAW 2017 -->
<svg xmlns="http://www.w3.org/2000/svg" xml:space="preserve" width="8.55474in" height="0.72226in" version="1.1" style="shape-rendering:geometricPrecision; text-rendering:geometricPrecision; image-rendering:optimizeQuality; fill-rule:evenodd; clip-rule:evenodd"
viewBox="0 0 8552 722"
 xmlns:xlink="http://www.w3.org/1999/xlink">
 <defs>
  <style type="text/css">
   <![CDATA[
    .str0 {stroke:#4FE8C9;stroke-width:10;stroke-miterlimit:2.61313}
    .fil0 {fill:#02241D;fill-rule:nonzero}
   ]]>
  </style>
 </defs>
 <g id="Layer_x0020_1">
  <metadata id="CorelCorpID_0Corel-Layer"/>
  <path class="fil0 str0" d="M5 166c0,24 10,45 22,57 23,24 58,26 81,26 21,0 58,-2 82,-25 12,-13 22,-35 22,-56 0,-22 -10,-37 -18,-45 -16,-16 -38,-21 -54,-24l-22 -5c-17,-4 -28,-5 -33,-11 -4,-4 -5,-8 -5,-11 0,-6 4,-11 8,-14 5,-3 14,-4 20,-4 13,0 19,4 22,7 4,4 5,10 5,16l68 0c-1,-24 -12,-42 -24,-52 -21,-18 -54,-20 -72,-20 -21,0 -49,2 -71,19 -11,9 -27,26 -27,56 0,19 6,33 18,44 8,8 24,18 57,24l23 5c8,2 21,5 27,9 6,4 9,10 9,17 0,8 -4,13 -9,17 -6,4 -14,5 -20,5 -7,0 -20,0 -28,-9 -5,-5 -9,-15 -8,-25l-72 0zm288 133c16,4 30,4 38,4 27,0 43,-8 52,-17 13,-12 20,-33 25,-48l59 -165 -64 0 -26 105 -33 -105 -70 0 66 158 -2 7c-1,5 -3,10 -9,14 -6,4 -12,4 -17,4 -6,0 -12,-1 -18,-3l0 45zm247 -225l0 168 68 0 0 -92c0,-8 2,-17 7,-23 5,-7 12,-9 17,-9 6,0 11,3 14,6 6,7 6,21 6,23l0 95 68 0 0 -91c0,-10 2,-18 6,-24 5,-8 12,-10 17,-10 7,0 12,3 15,8 5,7 6,18 6,23l0 93 68 0 0 -99c0,-16 -2,-43 -19,-59 -15,-14 -34,-15 -45,-15 -13,0 -25,2 -39,10 -8,5 -16,12 -21,21 -4,-11 -12,-19 -18,-23 -9,-5 -21,-9 -32,-9 -13,0 -24,4 -32,9 -7,5 -14,12 -19,20l-2 0 0 -23 -62 0zm504 0l-39 0 0 -1c0,-6 -1,-11 6,-15 4,-3 9,-4 15,-4 5,0 13,1 18,3l0 -42c-13,-2 -31,-3 -43,-3 -12,0 -35,1 -51,15 -14,13 -16,30 -16,46l0 3 -31 0 0 46 31 0 0 122 70 0 0 -122 39 0 0 -46zm162 38c6,0 11,1 16,6 9,10 11,28 11,40 0,3 0,28 -11,40 -5,5 -10,7 -17,7 -6,0 -11,-1 -16,-7 -7,-8 -10,-26 -10,-40 0,-25 7,-35 11,-40 5,-5 10,-7 17,-7zm97 46c0,-32 -12,-53 -25,-65 -22,-21 -52,-24 -72,-24 -23,0 -51,3 -74,27 -12,13 -25,33 -25,67 0,34 13,54 25,65 20,18 46,21 70,21 22,0 53,-2 76,-24 12,-12 25,-33 25,-66zm149 -84l-66 0 0 168 69 0 0 -89c0,-2 0,-15 7,-24 5,-8 13,-10 18,-10 7,0 12,3 16,9 2,3 5,9 5,25l0 90 69 0 0 -101c0,-23 -2,-42 -17,-56 -14,-13 -31,-16 -46,-16 -10,0 -21,1 -32,7 -9,4 -16,10 -21,16l-1 0 0 -18zm212 225c16,4 30,4 38,4 27,0 43,-8 52,-17 13,-12 20,-33 25,-48l59 -165 -64 0 -26 105 -33 -105 -70 0 66 158 -2 7c-1,5 -3,10 -9,14 -6,4 -12,4 -17,4 -6,0 -12,-1 -18,-3l0 45zm424 -106l0 49 70 0 0 -49 30 0 0 -52 -30 0 0 -130 -67 0 -112 128 0 54 109 0zm-56 -52l59 -65 0 65 -59 0zm409 -29c6,0 11,1 16,6 9,10 11,28 11,40 0,3 0,28 -11,40 -5,5 -10,7 -17,7 -6,0 -11,-1 -16,-7 -7,-8 -10,-26 -10,-40 0,-25 7,-35 11,-40 5,-5 10,-7 17,-7zm97 46c0,-32 -12,-53 -25,-65 -22,-21 -52,-24 -72,-24 -23,0 -51,3 -74,27 -12,13 -25,33 -25,67 0,34 13,54 25,65 20,18 46,21 70,21 22,0 53,-2 76,-24 12,-12 25,-33 25,-66zm149 -84l-66 0 0 168 69 0 0 -89c0,-2 0,-15 7,-24 5,-8 13,-10 18,-10 7,0 12,3 16,9 2,3 5,9 5,25l0 90 69 0 0 -101c0,-23 -2,-42 -17,-56 -14,-13 -31,-16 -46,-16 -10,0 -21,1 -32,7 -9,4 -16,10 -21,16l-1 0 0 -18zm296 -63l0 231 111 0c27,0 54,-1 80,-24 11,-10 34,-36 34,-88 0,-37 -11,-72 -33,-93 -24,-23 -53,-26 -80,-26l-111 0zm72 61l25 0c11,0 27,1 38,12 12,12 13,35 13,43 0,13 -2,32 -14,43 -11,10 -26,11 -36,11l-26 0 0 -108zm324 40c6,0 11,1 16,6 9,10 11,28 11,40 0,3 0,28 -11,40 -5,5 -10,7 -17,7 -6,0 -11,-1 -16,-7 -7,-8 -10,-26 -10,-40 0,-25 7,-35 11,-40 5,-5 10,-7 17,-7zm97 46c0,-32 -12,-53 -25,-65 -22,-21 -52,-24 -72,-24 -23,0 -51,3 -74,27 -12,13 -25,33 -25,67 0,34 13,54 25,65 20,18 46,21 70,21 22,0 53,-2 76,-24 12,-12 25,-33 25,-66zm193 18c0,7 -3,17 -8,23 -5,5 -11,6 -16,6 -6,0 -12,-1 -17,-7 -10,-11 -10,-32 -10,-41 0,-13 1,-29 10,-39 5,-5 10,-7 17,-7 6,0 12,2 16,6 6,6 8,16 8,22l64 0c-1,-21 -10,-38 -20,-48 -12,-12 -32,-24 -68,-24 -23,0 -50,5 -70,25 -15,15 -27,38 -27,70 0,33 13,53 24,64 20,19 47,22 69,22 21,0 50,-2 72,-24 10,-10 20,-26 22,-48l-65 0zm217 -50l0 -116 -69 0 0 231 69 0 0 -47 12 -13 35 59 77 0 -69 -100 67 -68 -77 0 -45 52zm305 67c-1,3 -3,7 -9,10 -5,3 -12,3 -17,3 -10,0 -17,-4 -21,-10 -4,-6 -7,-17 -6,-25l123 0 0 -4c0,-20 0,-52 -23,-75 -13,-13 -35,-25 -73,-25 -26,0 -52,6 -73,27 -16,17 -25,41 -25,68 0,28 10,49 23,62 21,21 48,23 74,23 18,0 40,0 61,-13 20,-12 29,-28 33,-42l-68 0zm-52 -54c0,-7 3,-17 8,-22 5,-6 12,-7 19,-7 6,0 12,1 17,7 5,5 7,15 7,22l-52 0zm340 -68c-4,-1 -7,-1 -11,-1 -11,0 -23,1 -34,7 -7,4 -16,10 -23,21l0 -24 -66 0 0 168 69 0 0 -62c0,-16 1,-33 12,-45 4,-4 15,-13 35,-13 5,0 13,1 18,2l0 -53zm282 44l0 51 32 0c-1,2 -5,12 -14,18 -9,7 -17,8 -26,8 -11,0 -21,-2 -31,-11 -14,-13 -18,-37 -18,-55 0,-18 4,-41 15,-53 6,-6 16,-12 31,-12 6,0 18,1 27,10 4,4 8,11 9,19l74 0c-4,-29 -19,-52 -34,-64 -20,-16 -53,-22 -79,-22 -28,0 -59,6 -86,33 -16,16 -35,46 -35,94 0,41 13,72 33,91 24,22 54,25 78,25 37,0 55,-11 68,-26l4 19 53 0 0 -127 -101 0zm323 -44c-4,-1 -7,-1 -11,-1 -11,0 -23,1 -34,7 -7,4 -16,10 -23,21l0 -24 -66 0 0 168 69 0 0 -62c0,-16 1,-33 12,-45 4,-4 15,-13 35,-13 5,0 13,1 18,2l0 -53zm190 123c-1,3 -3,7 -9,10 -5,3 -12,3 -17,3 -10,0 -17,-4 -21,-10 -4,-6 -7,-17 -6,-25l123 0 0 -4c0,-20 0,-52 -23,-75 -13,-13 -35,-25 -73,-25 -26,0 -52,6 -73,27 -16,17 -25,41 -25,68 0,28 10,49 23,62 21,21 48,23 74,23 18,0 40,0 61,-13 20,-12 29,-28 33,-42l-68 0zm-52 -54c0,-7 3,-17 8,-22 5,-6 12,-7 19,-7 6,0 12,1 17,7 5,5 7,15 7,22l-52 0zm266 -8c0,-6 2,-13 5,-16 3,-3 8,-5 16,-5 2,0 10,0 15,5 2,2 4,5 4,11 0,6 -3,10 -5,13 -5,4 -12,5 -31,7l-20 2c-14,2 -32,5 -45,18 -9,9 -13,20 -13,33 0,19 8,30 14,36 12,11 29,13 42,13 12,0 25,-2 38,-8 8,-4 15,-10 20,-16l1 0 4 18 75 0 0 -2c-4,-1 -8,-4 -9,-8 -2,-3 -2,-7 -2,-19l0 -76c0,-14 -2,-33 -17,-48 -19,-19 -53,-19 -69,-19 -22,0 -52,3 -71,22 -9,9 -16,23 -17,39l65 0zm40 39c0,9 -1,20 -9,29 -5,6 -11,8 -19,8 -4,0 -8,-1 -12,-4 -2,-2 -4,-6 -4,-11 0,-4 1,-7 4,-11 6,-6 14,-7 20,-8 7,-1 13,-2 20,-7l0 4zm140 -51l30 0 0 72c0,12 2,30 13,41 13,13 35,14 50,14 15,0 28,-1 43,-5l0 -47c-5,1 -11,2 -16,2 -9,0 -13,-2 -16,-5 -5,-5 -5,-13 -5,-18l0 -55 36 0 0 -46 -36 0 0 -50 -69 0 0 50 -30 0 0 46zm430 90l72 0 11 33 75 0 -86 -231 -71 0 -86 231 75 0 11 -33zm14 -48l21 -69 22 69 -43 0zm212 -88l0 229 69 0 0 -73c15,16 34,18 49,18 19,0 39,-3 55,-20 18,-18 25,-46 25,-72 0,-44 -18,-64 -24,-69 -17,-17 -39,-18 -53,-18 -16,0 -39,3 -54,24l-1 0 0 -18 -66 0zm66 86c0,-12 1,-26 10,-36 6,-6 13,-9 20,-9 10,0 17,4 20,9 9,10 10,26 10,36 0,9 -1,25 -10,36 -5,5 -11,9 -20,9 -8,0 -16,-3 -21,-11 -8,-10 -9,-24 -9,-34zm214 -86l0 229 69 0 0 -73c15,16 34,18 49,18 19,0 39,-3 55,-20 18,-18 25,-46 25,-72 0,-44 -18,-64 -24,-69 -17,-17 -39,-18 -53,-18 -16,0 -39,3 -54,24l-1 0 0 -18 -66 0zm66 86c0,-12 1,-26 10,-36 6,-6 13,-9 20,-9 10,0 17,4 20,9 9,10 10,26 10,36 0,9 -1,25 -10,36 -5,5 -11,9 -20,9 -8,0 -16,-3 -21,-11 -8,-10 -9,-24 -9,-34zm214 -149l0 231 69 0 0 -231 -69 0zm164 63l0 168 69 0 0 -168 -69 0zm0 -20l69 0 0 -44 -69 0 0 44zm274 122c0,7 -3,17 -8,23 -5,5 -11,6 -16,6 -6,0 -12,-1 -17,-7 -10,-11 -10,-32 -10,-41 0,-13 1,-29 10,-39 5,-5 10,-7 17,-7 6,0 12,2 16,6 6,6 8,16 8,22l64 0c-1,-21 -10,-38 -20,-48 -12,-12 -32,-24 -68,-24 -23,0 -50,5 -70,25 -15,15 -27,38 -27,70 0,33 13,53 24,64 20,19 47,22 69,22 21,0 50,-2 72,-24 10,-10 20,-26 22,-48l-65 0zm208 -45c0,-6 2,-13 5,-16 3,-3 8,-5 16,-5 2,0 10,0 15,5 2,2 4,5 4,11 0,6 -3,10 -5,13 -5,4 -12,5 -31,7l-20 2c-14,2 -32,5 -45,18 -9,9 -13,20 -13,33 0,19 8,30 14,36 12,11 29,13 42,13 12,0 25,-2 38,-8 8,-4 15,-10 20,-16l1 0 4 18 75 0 0 -2c-4,-1 -8,-4 -9,-8 -2,-3 -2,-7 -2,-19l0 -76c0,-14 -2,-33 -17,-48 -19,-19 -53,-19 -69,-19 -22,0 -52,3 -71,22 -9,9 -16,23 -17,39l65 0zm40 39c0,9 -1,20 -9,29 -5,6 -11,8 -19,8 -4,0 -8,-1 -12,-4 -2,-2 -4,-6 -4,-11 0,-4 1,-7 4,-11 6,-6 14,-7 20,-8 7,-1 13,-2 20,-7l0 4zm140 -51l30 0 0 72c0,12 2,30 13,41 13,13 35,14 50,14 15,0 28,-1 43,-5l0 -47c-5,1 -11,2 -16,2 -9,0 -13,-2 -16,-5 -5,-5 -5,-13 -5,-18l0 -55 36 0 0 -46 -36 0 0 -50 -69 0 0 50 -30 0 0 46zm217 -46l0 168 69 0 0 -168 -69 0zm0 -20l69 0 0 -44 -69 0 0 44zm251 57c6,0 11,1 16,6 9,10 11,28 11,40 0,3 0,28 -11,40 -5,5 -10,7 -17,7 -6,0 -11,-1 -16,-7 -7,-8 -10,-26 -10,-40 0,-25 7,-35 11,-40 5,-5 10,-7 17,-7zm97 46c0,-32 -12,-53 -25,-65 -22,-21 -52,-24 -72,-24 -23,0 -51,3 -74,27 -12,13 -25,33 -25,67 0,34 13,54 25,65 20,18 46,21 70,21 22,0 53,-2 76,-24 12,-12 25,-33 25,-66zm149 -84l-66 0 0 168 69 0 0 -89c0,-2 0,-15 7,-24 5,-8 13,-10 18,-10 7,0 12,3 16,9 2,3 5,9 5,25l0 90 69 0 0 -101c0,-23 -2,-42 -17,-56 -14,-13 -31,-16 -46,-16 -10,0 -21,1 -32,7 -9,4 -16,10 -21,16l-1 0 0 -18z"/>
  <path class="fil0 str0" d="M2378 462l-60 0 0 199 60 0 0 -77c0,-8 2,-16 6,-21 4,-6 9,-8 16,-8 7,0 11,3 14,7 4,6 5,17 5,21l0 77 60 0 0 -87c0,-18 -2,-36 -15,-49 -7,-7 -19,-13 -39,-13 -23,0 -38,9 -46,17l0 -67zm164 94l26 0 0 62c0,10 1,26 11,36 11,11 30,12 43,12 13,0 24,-1 37,-4l0 -40c-4,1 -9,2 -13,2 -8,0 -11,-2 -13,-4 -4,-4 -4,-11 -4,-16l0 -48 31 0 0 -39 -31 0 0 -43 -60 0 0 43 -26 0 0 39zm179 0l26 0 0 62c0,10 1,26 11,36 11,11 30,12 43,12 13,0 24,-1 37,-4l0 -40c-4,1 -9,2 -13,2 -8,0 -11,-2 -13,-4 -4,-4 -4,-11 -4,-16l0 -48 31 0 0 -39 -31 0 0 -43 -60 0 0 43 -26 0 0 39zm187 -39l0 197 60 0 0 -63c13,14 29,16 42,16 16,0 33,-3 48,-18 15,-15 21,-40 21,-62 0,-38 -16,-55 -20,-59 -15,-14 -33,-16 -46,-16 -14,0 -33,2 -47,21l-1 0 0 -16 -57 0zm57 74c0,-10 1,-23 9,-31 5,-5 11,-7 17,-7 9,0 14,4 17,7 8,9 9,23 9,31 0,8 -1,22 -9,31 -4,5 -10,7 -17,7 -7,0 -13,-3 -18,-9 -7,-9 -7,-21 -7,-29zm173 23c0,17 7,28 14,35 15,15 37,18 63,18 31,0 47,-6 57,-13 10,-7 19,-20 19,-39 0,-14 -6,-24 -12,-31 -11,-10 -28,-13 -38,-15l-20 -3c-6,-1 -11,-1 -18,-5 -3,-1 -6,-3 -6,-9 0,-4 2,-7 5,-10 1,-1 5,-3 13,-3 5,0 11,1 15,5 3,3 5,9 4,13l51 0c-1,-20 -13,-31 -20,-36 -10,-7 -25,-11 -49,-11 -17,0 -38,2 -53,12 -9,6 -20,18 -20,38 0,15 7,23 12,28 10,9 26,12 40,14l15 2c8,1 14,2 19,4 5,2 7,6 7,11 0,5 -3,8 -6,10 -5,3 -9,3 -15,3 -7,0 -12,-2 -15,-5 -4,-4 -5,-10 -4,-15l-58 0zm225 48l61 0 0 -59 -61 0 0 59zm0 -83l61 0 0 -59 -61 0 0 59zm125 135l24 0 104 -252 -24 0 -104 252zm173 0l24 0 104 -252 -24 0 -104 252zm295 -130l20 77 55 0 48 -145 -57 0 -22 79 -19 -79 -51 0 -19 79 -22 -79 -57 0 50 145 56 0 20 -77zm286 0l20 77 55 0 48 -145 -57 0 -22 79 -19 -79 -51 0 -19 79 -22 -79 -57 0 50 145 56 0 20 -77zm286 0l20 77 55 0 48 -145 -57 0 -22 79 -19 -79 -51 0 -19 79 -22 -79 -57 0 50 145 56 0 20 -77zm184 77l61 0 0 -59 -61 0 0 59zm132 -48c0,17 7,28 14,35 15,15 37,18 63,18 31,0 47,-6 57,-13 10,-7 19,-20 19,-39 0,-14 -6,-24 -12,-31 -11,-10 -28,-13 -38,-15l-20 -3c-6,-1 -11,-1 -18,-5 -3,-1 -6,-3 -6,-9 0,-4 2,-7 5,-10 1,-1 5,-3 13,-3 5,0 11,1 15,5 3,3 5,9 4,13l51 0c-1,-20 -13,-31 -20,-36 -10,-7 -25,-11 -49,-11 -17,0 -38,2 -53,12 -9,6 -20,18 -20,38 0,15 7,23 12,28 10,9 26,12 40,14l15 2c8,1 14,2 19,4 5,2 7,6 7,11 0,5 -3,8 -6,10 -5,3 -9,3 -15,3 -7,0 -12,-2 -15,-5 -4,-4 -5,-10 -4,-15l-58 0zm326 -97l-34 0 0 -1c0,-5 -1,-9 5,-13 3,-3 8,-4 13,-4 4,0 11,1 16,2l0 -36c-11,-1 -26,-3 -37,-3 -10,0 -30,1 -44,13 -12,11 -13,26 -13,39l0 2 -26 0 0 39 26 0 0 105 60 0 0 -105 34 0 0 -39zm151 102l0 42 60 0 0 -42 26 0 0 -45 -26 0 0 -112 -57 0 -97 110 0 47 94 0zm-48 -45l51 -56 0 56 -51 0zm372 87l0 -199 -60 0 0 67c-6,-7 -17,-17 -42,-17 -19,0 -35,5 -48,19 -13,14 -21,36 -21,61 0,26 9,45 20,56 15,16 33,18 47,18 12,0 32,-2 46,-19l1 0 0 14 57 0zm-57 -73c0,11 -1,24 -9,33 -4,5 -10,7 -17,7 -7,0 -13,-3 -16,-7 -5,-5 -10,-15 -10,-32 0,-8 1,-23 9,-32 5,-5 11,-7 16,-7 9,0 15,4 18,7 7,8 9,19 9,29zm140 73l61 0 0 -59 -61 0 0 59zm146 7c1,9 3,24 20,36 15,11 37,12 53,12 20,0 44,-1 62,-18 17,-17 20,-38 20,-58l0 -123 -56 0 0 13 -1 0c-12,-13 -29,-17 -44,-17 -18,0 -34,6 -46,19 -9,10 -20,27 -20,56 0,27 10,43 18,51 15,14 32,16 47,16 15,0 28,-2 41,-13l1 0 0 16c0,5 -1,12 -6,17 -3,3 -8,5 -16,5 -5,0 -10,-1 -13,-3 -2,-1 -5,-4 -5,-10l-55 0zm49 -83c0,-5 1,-19 9,-27 4,-4 10,-7 16,-7 7,0 12,3 16,7 4,5 8,12 8,26 0,4 -1,18 -8,26 -3,4 -9,7 -17,7 -7,0 -13,-3 -17,-8 -6,-8 -7,-17 -7,-25zm239 -19c0,-5 2,-11 5,-14 3,-3 7,-5 13,-5 2,0 9,0 13,4 2,1 4,5 4,9 0,5 -2,9 -4,11 -4,4 -10,4 -26,6l-17 2c-12,1 -28,4 -39,16 -8,8 -11,17 -11,28 0,16 7,26 12,31 11,10 25,11 36,11 10,0 22,-1 32,-7 7,-3 13,-9 18,-14l1 0 4 16 64 0 0 -2c-3,-1 -7,-4 -8,-7 -1,-3 -2,-6 -2,-17l0 -65c0,-12 -1,-28 -15,-41 -17,-16 -46,-17 -60,-17 -19,0 -45,3 -61,19 -8,8 -13,20 -15,34l56 0zm34 34c0,8 -1,18 -8,25 -5,5 -10,7 -16,7 -3,0 -7,-1 -10,-4 -2,-2 -4,-5 -4,-9 0,-3 1,-6 3,-9 5,-5 12,-6 17,-7 6,-1 11,-2 17,-6l0 4z"/>
 </g>
</svg>
