<?xml version="1.0" encoding="UTF-8"?>
<!DOCTYPE svg PUBLIC "-//W3C//DTD SVG 1.1//EN" "http://www.w3.org/Graphics/SVG/1.1/DTD/svg11.dtd">
<!-- Creator: CorelDRAW 2017 -->
<svg xmlns="http://www.w3.org/2000/svg" xml:space="preserve" width="5.3546in" height="2.66666in" version="1.1" style="shape-rendering:geometricPrecision; text-rendering:geometricPrecision; image-rendering:optimizeQuality; fill-rule:evenodd; clip-rule:evenodd"
viewBox="0 0 5355 2667"
 xmlns:xlink="http://www.w3.org/1999/xlink">
 <defs>
  <style type="text/css">
   <![CDATA[
    .fil0 {fill:none}
    .fil2 {fill:#02241D}
    .fil1 {fill:#4FE8C9}
    .fil3 {fill:black;fill-rule:nonzero}
   ]]>
  </style>
 </defs>
 <g id="Layer_x0020_1">
  <metadata id="CorelCorpID_0Corel-Layer"/>
  <g id="_797125392">
   <rect class="fil0" width="5355" height="2667"/>
   <path class="fil1" d="M1319 24l2716 0c720,0 1309,589 1309,1309 0,720 -589,1309 -1309,1309l-2716 0c-720,0 -1309,-589 -1309,-1309 0,-720 589,-1309 1309,-1309z"/>
   <path class="fil2" d="M4052 802l-2065 0c43,56 80,117 109,182 47,107 74,225 74,349 0,124 -26,242 -74,349 -29,65 -66,126 -109,182l2066 0c146,0 278,-60 375,-156 96,-96 156,-229 156,-375l0 0 0 0c0,-146 -60,-278 -156,-375 -96,-96 -229,-156 -374,-156l0 0 0 0zm-2208 -62l2208 0c326,0 593,267 593,593l0 0c0,326 -267,593 -593,593l-2208 0c162,-146 263,-358 263,-593 0,-235 -101,-447 -263,-593zm2208 1393c440,0 799,-360 799,-800l0 0c0,-440 -360,-800 -799,-800l-2744 0c-440,0 -799,360 -799,800l0 0c0,440 360,800 799,800l2744 0zm-2353 -941c-3,36 -17,65 -29,83 -14,20 -38,47 -72,62l0 59 101 0 0 52 86 0 0 -52 35 0 0 -48 -36 0 0 -102 -4 0c-16,27 -41,58 -77,80l0 22 -52 0 0 -3c14,-8 30,-17 46,-28 20,-15 38,-31 55,-52 15,-18 31,-42 45,-72l-96 0zm-391 -448c-326,0 -591,265 -591,591 0,327 265,591 591,591 326,0 591,-265 591,-591 0,-327 -265,-591 -591,-591zm-387 660c0,-21 18,-50 47,-50 28,0 47,20 47,43 0,36 -23,36 -23,55 0,21 18,32 60,32 43,0 66,-21 66,-55 0,-62 -98,-75 -98,-177 0,-71 66,-127 146,-127 66,0 116,40 167,94 43,-138 129,-252 251,-252 52,0 99,31 99,71 0,35 -17,55 -48,55 -27,0 -50,-13 -50,-41 0,-22 19,-23 19,-40 0,-17 -14,-23 -33,-23 -50,0 -117,70 -142,275 47,14 125,-9 125,-34 0,-18 -20,-6 -20,-37 0,-19 18,-36 40,-36 27,0 40,19 40,42 0,63 -103,113 -190,88 -32,312 -172,483 -313,483 -58,0 -93,-39 -93,-76 0,-37 24,-60 59,-60 37,0 56,24 56,50 0,37 -33,25 -33,43 0,12 8,22 27,18 124,-33 130,-295 195,-500 -44,-41 -95,-90 -146,-90 -42,0 -60,30 -60,60 0,53 99,81 99,180 0,80 -72,121 -142,121 -76,0 -154,-42 -154,-114zm1425 -253l0 365 175 0c43,0 86,-2 126,-38 17,-16 53,-57 53,-139 0,-58 -18,-114 -53,-147 -38,-36 -84,-41 -127,-41l-175 0zm114 96l40 0c17,0 43,1 60,18 19,19 20,55 20,68 0,21 -3,50 -22,67 -17,16 -41,17 -57,17l-41 0 0 -171zm431 64c9,0 17,2 24,10 14,15 17,45 17,63 0,5 0,44 -17,63 -7,8 -16,10 -26,10 -9,0 -18,-2 -25,-10 -11,-13 -16,-41 -16,-63 0,-40 10,-56 17,-63 7,-8 16,-10 27,-10zm154 73c0,-50 -18,-83 -40,-103 -35,-34 -82,-38 -114,-38 -36,0 -80,5 -116,42 -19,20 -40,52 -40,105 0,54 20,86 39,103 32,29 73,33 111,33 35,0 83,-3 120,-38 19,-19 40,-52 40,-104zm224 29c0,11 -4,27 -13,36 -8,8 -17,9 -25,9 -10,0 -19,-2 -27,-11 -16,-17 -16,-50 -16,-65 0,-21 2,-46 16,-61 7,-8 16,-11 27,-11 9,0 18,3 25,9 10,10 13,25 13,35l101 0c-2,-33 -16,-59 -32,-76 -19,-19 -51,-38 -107,-38 -36,0 -78,8 -111,40 -23,23 -43,61 -43,110 0,52 20,83 38,101 32,31 75,35 108,35 34,0 79,-3 113,-38 16,-16 32,-42 35,-76l-102 0zm261 -78l0 -183 -109 0 0 365 109 0 0 -74 19 -20 55 94 121 0 -108 -158 106 -107 -121 0 -71 82zm401 106c-2,5 -5,11 -14,16 -7,4 -18,5 -26,5 -16,0 -27,-6 -33,-15 -7,-9 -10,-26 -10,-40l194 0 0 -6c0,-31 -1,-81 -36,-118 -20,-21 -55,-39 -116,-39 -41,0 -82,9 -115,43 -25,26 -40,65 -40,107 0,44 16,77 36,98 33,33 76,37 117,37 28,0 63,-1 96,-20 31,-18 45,-44 53,-66l-107 0zm-82 -86c1,-11 5,-26 13,-35 8,-9 19,-11 30,-11 9,0 19,2 27,11 7,8 11,24 11,35l-81 0zm456 -108c-6,-1 -11,-2 -18,-2 -17,0 -36,2 -54,11 -10,6 -25,16 -36,33l0 -38 -105 0 0 265 109 0 0 -98c0,-25 1,-53 19,-71 7,-7 23,-20 55,-20 8,0 20,1 29,3l0 -84z"/>
   <path class="fil3" d="M1309 74l2737 0c346,0 661,142 890,370 228,228 370,543 370,890 0,346 -142,661 -370,890 -228,228 -543,370 -890,370l-2737 0c-346,0 -661,-142 -890,-370 -228,-228 -370,-543 -370,-890 0,-346 142,-661 370,-890 228,-228 543,-370 890,-370zm2737 42l-2737 0c-335,0 -639,137 -860,358 -221,221 -358,525 -358,860 0,335 137,639 358,860 221,221 525,358 860,358l2737 0c335,0 639,-137 860,-358 221,-221 358,-525 358,-860 0,-335 -137,-639 -358,-860 -221,-221 -525,-358 -860,-358z"/>
   <polygon class="fil2" points="1308,2445 1289,2386 1227,2386 1277,2350 1258,2291 1308,2327 1358,2291 1338,2350 1389,2386 1327,2386 "/>
   <polygon class="fil2" points="965,2390 965,2328 906,2309 965,2290 965,2228 1001,2279 1060,2259 1023,2309 1060,2359 1001,2340 "/>
   <polygon class="fil2" points="655,2232 674,2174 624,2137 686,2137 705,2078 724,2137 786,2137 736,2174 755,2232 705,2196 "/>
   <polygon class="fil2" points="410,1987 446,1937 410,1887 468,1906 505,1856 505,1918 563,1937 505,1956 505,2018 468,1967 "/>
   <polygon class="fil2" points="252,1677 302,1641 283,1582 333,1618 383,1582 363,1641 414,1677 352,1677 333,1736 314,1677 "/>
   <polygon class="fil2" points="197,1333 256,1314 256,1252 293,1303 351,1283 315,1333 351,1383 293,1364 256,1414 256,1352 "/>
   <polygon class="fil2" points="252,990 314,990 333,931 352,990 414,990 363,1026 383,1085 333,1049 283,1085 302,1026 "/>
   <polygon class="fil2" points="410,680 468,699 505,649 505,711 563,730 505,749 505,811 468,761 410,780 446,730 "/>
   <polygon class="fil2" points="655,434 705,471 755,434 736,493 786,530 724,529 705,588 686,529 624,530 674,493 "/>
   <polygon class="fil2" points="965,277 1001,327 1060,307 1023,358 1060,408 1001,388 965,439 965,377 906,358 965,338 "/>
   <polygon class="fil2" points="1308,222 1327,281 1389,281 1338,317 1358,376 1308,340 1258,376 1277,317 1227,281 1289,281 "/>
   <path class="fil2" d="M4047 222l-19 59 -62 0 50 36 -19 59 50 -37 50 37 -19 -59 50 -36 -62 0 -19 -59zm343 54l-36 50 -59 -19 36 50 -36 50 59 -19 36 50 0 -62 59 -19 -59 -19 0 -62zm309 158l-50 37 -50 -37 19 59 -50 36 62 0 19 59 19 -59 62 0 -50 -36 19 -59zm246 246l-59 19 -36 -50 0 62 -59 19 59 19 0 62 36 -50 59 19 -36 -50 36 -50zm158 310l-62 0 -19 -59 -19 59 -62 0 50 36 -19 59 50 -37 50 37 -19 -59 50 -36zm54 343l-59 -19 0 -62 -36 50 -59 -19 36 50 -36 50 59 -19 36 50 0 -62 59 -19zm-54 343l-50 -36 19 -59 -50 37 -50 -37 19 59 -50 36 62 0 19 59 19 -59 62 0zm-158 310l-36 -50 36 -50 -59 19 -36 -50 0 62 -59 19 59 19 0 62 36 -50 59 19zm-246 246l-19 -59 50 -36 -62 0 -19 -59 -19 59 -62 0 50 36 -19 59 50 -37 50 37zm-309 158l0 -62 59 -19 -59 -19 0 -62 -36 50 -59 -19 36 50 -36 50 59 -19 36 50zm-343 54l19 -59 62 0 -50 -36 19 -59 -50 37 -50 -37 19 59 -50 36 62 0 19 59z"/>
   <path class="fil2" d="M1650 222l19 59 62 0 -50 36 19 59 -50 -37 -50 37 19 -59 -50 -36 62 0 19 -59zm342 0l19 59 62 0 -50 36 19 59 -50 -37 -50 37 19 -59 -50 -36 62 0 19 -59zm342 0l19 59 62 0 -50 36 19 59 -50 -37 -50 37 19 -59 -50 -36 62 0 19 -59zm342 0l19 59 62 0 -50 36 19 59 -50 -37 -50 37 19 -59 -50 -36 62 0 19 -59zm342 0l19 59 62 0 -50 36 19 59 -50 -37 -50 37 19 -59 -50 -36 62 0 19 -59zm342 0l19 59 62 0 -50 36 19 59 -50 -37 -50 37 19 -59 -50 -36 62 0 19 -59zm342 0l19 59 62 0 -50 36 19 59 -50 -37 -50 37 19 -59 -50 -36 62 0 19 -59z"/>
   <path class="fil2" d="M1650 2445l19 -59 62 0 -50 -36 19 -59 -50 37 -50 -37 19 59 -50 36 62 0 19 59zm342 0l19 -59 62 0 -50 -36 19 -59 -50 37 -50 -37 19 59 -50 36 62 0 19 59zm342 0l19 -59 62 0 -50 -36 19 -59 -50 37 -50 -37 19 59 -50 36 62 0 19 59zm342 0l19 -59 62 0 -50 -36 19 -59 -50 37 -50 -37 19 59 -50 36 62 0 19 59zm342 0l19 -59 62 0 -50 -36 19 -59 -50 37 -50 -37 19 59 -50 36 62 0 19 59zm342 0l19 -59 62 0 -50 -36 19 -59 -50 37 -50 -37 19 59 -50 36 62 0 19 59zm342 0l19 -59 62 0 -50 -36 19 -59 -50 37 -50 -37 19 59 -50 36 62 0 19 59z"/>
  </g>
 </g>
</svg>
